<?xml version="1.0" encoding="utf-8"?>
<!-- Generator: Adobe Illustrator 17.0.0, SVG Export Plug-In . SVG Version: 6.00 Build 0)  -->
<!DOCTYPE svg PUBLIC "-//W3C//DTD SVG 1.0//EN" "http://www.w3.org/TR/2001/REC-SVG-20010904/DTD/svg10.dtd">
<svg version="1.0" id="Camada_1" xmlns="http://www.w3.org/2000/svg" xmlns:xlink="http://www.w3.org/1999/xlink" x="0px" y="0px"
	 width="322px" height="543px" viewBox="0 0 322 543" enable-background="new 0 0 322 543" xml:space="preserve">
<g>
	<path fill-rule="evenodd" clip-rule="evenodd" d="M159.076,146.787c-34.686,0-72.07,2.769-105.797,10.593
		c2.951,53.211,0.066,160.206,24.6,188.897c-3.055,0.494-6.107,1.02-9.162,1.576c-17.713-29-19.715-101.352-21.275-157.072
		c-0.406-14.713-0.781-28.268-1.357-39.558l-0.068-0.088l0.068-0.02c36.853-8.536,75.23-11.737,112.992-11.736
		c37.764,0.001,76.131,3.192,112.975,11.736l0.086,0.02l-0.004,0.088c-0.625,11.29-1.004,24.845-1.414,39.558
		c-1.557,55.721-3.58,128.072-21.229,157.072c-3.086-0.557-6.164-1.082-9.232-1.576c24.568-28.691,21.668-135.686,24.613-188.897
		C231.137,149.557,193.764,146.787,159.076,146.787z"/>
	<path fill-rule="evenodd" clip-rule="evenodd" d="M177.172,121.078c-5.279-1.319-11.787-1.889-18.096-1.889
		c-6.307,0-12.816,0.569-18.096,1.889c-7.59-4.861-8.271-13.742-0.158-17.263c5.963-0.996,12.289-1.698,18.254-1.698
		c5.967,0,12.293,0.702,18.256,1.698C185.443,107.336,184.762,116.217,177.172,121.078z"/>
	<path fill-rule="evenodd" clip-rule="evenodd" d="M81.275,187.115c-5.461-18.477,11.164-29.458,22.211-30.259
		c30.27-2.195,47.885,5.206,81.512,7.225c12.502,0.114,24.715-0.415,37.307-5.578c-2.879,8.812-41.531,15.679-57.35,15.764
		c-5.58,0.029-11.521-0.344-16.996-1.183c-3.402-0.52-54.41-8.33-52.865,8.177c0.141,1.511,2.127,1.501,2.742,1.252
		c9.367-3.801,16.006-6.785,25.797-7.137c19.539-0.7,32.98,5.179,54.461,0.821c-15,9.735-53.186,6.337-60.918,8.644
		c-7.856,2.345-14.176,6.607-21.238,8.588C84.52,196.63,81.656,188.399,81.275,187.115z"/>
	<path fill-rule="evenodd" clip-rule="evenodd" d="M98.146,232.042c1.537-3.111,3.492-6.389,6.221-8.552
		c4.561-3.615,10.203,5.602,4.5,7.679C105.572,232.37,101.719,232.199,98.146,232.042z"/>
	<path fill-rule="evenodd" clip-rule="evenodd" d="M81.906,239.023c-2.688-1.315-5.906-2.726-8.822-3.606
		c2.709-0.731,5.424-2.031,7.977-3.222c-2.914-2.375-6.055-4.984-9.545-6.008c-5.174-1.519-6.455,6.852-2.949,9.089
		c-4.002,1.727-3.332,9.805,1.363,9.965c-1.557,2.478,1.066,7.63,4.381,5.9c2.48-1.292,5.168-4.546,6.199-5.916
		c-2.062-0.504-4.299-1.031-6.416-1.225C76.789,242.631,79.482,240.76,81.906,239.023z"/>
	<path fill-rule="evenodd" clip-rule="evenodd" d="M96.357,342.801c13.938-2.422,19.951-4.809,28.518-8.553
		c9.156-3.406,16.771-7.533,25.887-13.139c-8.404-0.539-15.402-3.742-20.814-7.783c-7.102-5.307-11.416-12.027-12.352-16.143
		c-0.818,4.627-2.391,8.57-5.176,12.469c-3.039,4.258-8.613,13.01-14.067,7.424c-2.576-1.729-10.166,2.111-14.512,1.125
		c-8.6-1.955-8.449,7.01-3.602,9.418c-4.043,2.76-2.33,9.906,3.236,10.527c-1.775,2.783,2.264,7.432,6.783,5.803
		C92.348,343.197,94.004,343.256,96.357,342.801z"/>
	<path fill-rule="evenodd" clip-rule="evenodd" d="M103.102,273.102c1.725,0.992,4.203,2.393,5.643,3.482l0,0
		c0.15,0.113,0.281,0.213,0.395,0.299c0.818-2.508,1.828-4.541,2.982-6.202c1.18-1.695,2.514-3.001,3.957-4.027
		c0.434-2.482,1.053-4.279,1.488-6.041c0.402-1.635,2.67-5.258,4.396-7.069c-0.756-0.36-2.295-0.444-3.434-0.61
		c-4.232-0.613-10.432-2.294-12.986-3.933c-0.356,4.058-0.785,8.029-1.215,12C103.895,264.992,103.461,268.986,103.102,273.102z"/>
	<path fill-rule="evenodd" clip-rule="evenodd" d="M105.787,196.674c3.51,1.87,6.457,3.648,6.32,9.209
		c-0.09,3.572-3.457,8.865-6.32,10.037H72.146c-2.861-1.172-6.228-6.465-6.318-10.037c-0.139-5.561,2.81-7.339,6.318-9.209H105.787z
		"/>
	<path fill-rule="evenodd" clip-rule="evenodd" d="M228.701,344.094c3.943-2.43,7.322-5.803,10.066-10.15h0.002
		c3.697-5.781,5.801-12.479,5.855-19.824c0.043-5.713-0.787-11.82-1.572-18.197c-0.988-8.051-17.346-46.93-21.037-54.358
		c-2.91-5.859-8.098-15.941-7.707-20.328c0.25-9.498,8.055-15.19,17.613-15.112c5.377,0.044,11.34,3.867,14.352,8.711v0.001
		c2.238,3.972,2.555,9.077,1.443,15.349c-0.004,0.017-0.039,0.082-0.051,0.093c-9.842,9.25-7.885,15.845-4.463,27.373
		c2.074,6.988,4.684,15.78,5.551,28.048c1.035-10.105,1.965-19.931,2.814-29.717c0.91-10.496,2.119-15.643,2.877-26.354
		c0-0.001,0-0.003,0-0.005v0.005c0-0.001,0-0.003,0-0.005c0.316-7.434-0.908-14.924-4.76-20.12
		c-4.195-5.659-10.592-9.46-18.787-9.049c-19.041,0.955-28.316,17.213-20.061,33.062c6.246,11.996,14.279,31.87,19.266,44.528
		c5.002,12.703,7.316,23.492,2.855,27.871c-0.074,0.072-0.215,0.061-0.275-0.023c-4.695-6.488-11.494-8.816-18.533-11.228
		c-8.291-2.842-17.381-6.713-23.35-16.662c-1.264,2.57-3.486,4.852-5.951,6.697c-3.363,2.521-9.719,5.828-12.145,6.363
		c-0.139,0.031-0.262-0.113-0.203-0.236c0.271-0.572,0.545-1.168,0.738-1.939c0.174-0.697,0.285-1.547,0.279-2.666
		c-2.25,1.932-3.172,2.154-6.895,4.107c-8.762,4.596-18.066,8.822-17.182,18.191c1.004,10.643,13.229,13.483,26.691,14.303
		c7.812,0.477,15.613,0.969,21.855,3.406c0.045-1.107,0.811-3.195,1.896-5.059c0.797-1.365,1.914-2.615,3.402-3.291
		c0.145-0.064,0.309,0.096,0.236,0.232c-1.477,2.785-2.143,7.809-2.084,10.32C201.752,341.725,218.877,342.992,228.701,344.094z"/>
	<path fill-rule="evenodd" clip-rule="evenodd" d="M149.158,318.854c1.32,0.272,2.672,0.479,4.055,0.613
		c-1.43-0.83-2.84-1.982-4.055-3.387V318.854L149.158,318.854z M149.158,297.506c3.158-3.955,8.639-7.979,17.408-11.678
		c1.279-0.662,4.113-2.09,6.688-4.367c2.566-2.27,4.906-5.4,5.252-9.496c0.039-0.459,0.816-0.541,0.967-0.102
		c0.652,1.922,0.814,3.957,0.623,6.053c-0.158,1.725-0.555,3.492-1.109,5.273c4.727-2.564,8.168-7.021,10.639-11.914
		c4.484-8.882,5.777-19.171,5.811-22.347c0.004-0.391,0.518-0.603,0.826-0.34c0.641,0.548,1.305,1.265,1.873,2.16
		c0.107,0.171,0.213,0.347,0.312,0.53c0.264-5.913-0.342-11.006-1.787-15.774c-1.621-5.346-4.297-10.295-7.98-15.543
		c-0.207-0.294,0.014-0.706,0.385-0.725c0.527-0.026,1.111,0.077,1.76,0.335c0.24,0.097,0.492,0.216,0.756,0.357
		c-2.73-6.703-6.348-10.823-10.771-15.859c-0.469-0.532-0.941-1.071-1.334-1.521c-0.064-0.073-0.123-0.303-0.102-0.395
		c0.34-1.468,0.566-2.229,1.074-2.885c0.447-0.577,1.068-1.013,2.148-1.736c-1.465-1.505-4.863-2.684-8.65-3.487
		c-4.984-1.057-10.586-1.442-13.416-1.076c1.389,2.317,1.973,4.701,2.041,6.932c0.096,3.124-0.826,5.954-1.943,7.876
		c-0.238,0.407-1,0.159-0.926-0.299c0.221-1.319,0.691-3.89,0.555-6.67c-0.133-2.685-0.834-5.582-2.889-7.741
		c-2.49-0.268-5.295-0.057-8.209,0.448v4.094l0.029-0.008l0,0c0.02-0.005,0.037-0.01,0.057-0.015l0,0
		c0.02-0.005,0.039-0.011,0.057-0.015l0,0c0.02-0.005,0.039-0.01,0.057-0.014l0,0c0.02-0.005,0.039-0.01,0.059-0.014l0,0
		c0.02-0.005,0.039-0.009,0.059-0.014v0.001c0.02-0.005,0.037-0.01,0.057-0.014l0,0c0.02-0.004,0.039-0.008,0.059-0.012l0,0
		c0.02-0.005,0.039-0.009,0.059-0.013l0,0c0.02-0.004,0.039-0.008,0.059-0.012l0,0c0.02-0.004,0.039-0.007,0.059-0.011l0,0
		c0.02-0.004,0.039-0.008,0.059-0.011l0,0c0.02-0.004,0.039-0.008,0.059-0.011h0.002c0.02-0.003,0.037-0.006,0.057-0.01h0.002
		c0.02-0.003,0.039-0.006,0.059-0.01l0,0c0.02-0.003,0.039-0.006,0.059-0.009l0,0c0.021-0.003,0.041-0.006,0.061-0.009l0,0
		c0.02-0.002,0.039-0.005,0.061-0.007l0,0c0.02-0.003,0.039-0.006,0.059-0.009l0,0c0.02-0.002,0.041-0.005,0.061-0.007l0,0
		c0.02-0.003,0.041-0.005,0.061-0.007l0,0c0.02-0.003,0.041-0.004,0.061-0.007l0,0c0.02-0.002,0.041-0.004,0.061-0.006l0,0
		c0.02-0.002,0.041-0.003,0.061-0.005l0,0c0.02-0.001,0.041-0.004,0.061-0.005l0,0c0.021-0.002,0.041-0.003,0.061-0.004h0.002
		c0.02-0.002,0.039-0.003,0.061-0.004l0,0c0.02-0.002,0.041-0.003,0.061-0.004l0,0c0.021-0.001,0.041-0.002,0.062-0.004l0,0
		c0.02-0.001,0.039-0.001,0.061-0.001l0,0c0.02-0.001,0.041-0.002,0.061-0.002l0,0c0.021-0.001,0.041-0.002,0.062-0.002l0,0
		c0.02,0,0.041,0,0.062-0.001l0,0c0.02,0,0.039,0,0.061,0l0,0c0.021,0,0.041,0,0.062,0l0,0c0.02,0.001,0.041,0.001,0.061,0.001l0,0
		c0.021,0.001,0.041,0.001,0.062,0.001l0,0c0.021,0.001,0.041,0.002,0.062,0.003l0,0c0.02,0.001,0.041,0.001,0.062,0.003l0,0
		c0.02,0,0.041,0.002,0.062,0.002l0,0c0.02,0.001,0.041,0.002,0.061,0.004h0.002c0.02,0.001,0.041,0.003,0.061,0.004h0.002
		c0.02,0.002,0.041,0.004,0.061,0.005h0.002c0.02,0.002,0.041,0.004,0.062,0.005l0,0c0.02,0.002,0.041,0.004,0.061,0.006h0.002
		c0.02,0.002,0.041,0.005,0.061,0.007h0.002c0.02,0.002,0.041,0.005,0.062,0.007l0,0c0.02,0.003,0.041,0.006,0.061,0.008h0.002
		c0.02,0.003,0.041,0.005,0.062,0.008l0,0c0.02,0.003,0.041,0.007,0.062,0.01l0,0c0.02,0.003,0.041,0.006,0.062,0.009l0,0
		c0.021,0.003,0.041,0.007,0.062,0.01l0,0c0.021,0.004,0.041,0.007,0.062,0.011l0,0c0.021,0.004,0.041,0.008,0.062,0.012l0,0
		c0.021,0.004,0.043,0.008,0.062,0.012h0.002c0.02,0.004,0.041,0.009,0.061,0.013l0,0c0.021,0.005,0.043,0.009,0.064,0.014l0,0
		c0.02,0.004,0.041,0.009,0.062,0.014l0,0c0.02,0.004,0.041,0.009,0.062,0.014l0,0c0.021,0.005,0.041,0.011,0.062,0.016l0,0
		c0.021,0.005,0.043,0.01,0.062,0.016l0,0l0.086,0.022l0,0l-0.002,0.085l0,0c0,0.005-0.002,0.01-0.002,0.015l0,0
		c0,0.004,0,0.009,0,0.013l0,0c-0.002,0.005-0.002,0.01-0.002,0.015l0,0c0,0.005,0,0.01,0,0.014l0,0
		c-0.002,0.005-0.002,0.011-0.002,0.016l0,0c-0.002,0.005-0.002,0.009-0.002,0.014l0,0c0,0.005-0.002,0.011-0.002,0.016l0,0
		c-0.002,0.005-0.002,0.01-0.002,0.015l0,0c-0.002,0.005-0.002,0.011-0.004,0.016l0,0c0,0.005,0,0.01-0.002,0.016v-0.001
		c0,0.006-0.002,0.011-0.002,0.017l0,0c-0.002,0.005-0.002,0.009-0.004,0.015l0,0c0,0.006-0.002,0.011-0.002,0.016H152.9
		c0,0.006,0,0.011-0.002,0.017l0,0c-0.002,0.005-0.004,0.011-0.004,0.016l0,0c-0.002,0.006-0.002,0.011-0.004,0.017l0,0
		c-0.002,0.005-0.002,0.011-0.004,0.017l0,0c-0.002,0.005-0.004,0.011-0.004,0.017h-0.002c0,0.006-0.002,0.012-0.004,0.017l0,0
		c-0.002,0.006-0.002,0.011-0.004,0.017l0,0c-0.002,0.006-0.004,0.012-0.006,0.018l0,0c-0.002,0.006-0.002,0.012-0.004,0.017l0,0
		c-0.002,0.006-0.004,0.012-0.006,0.018l0,0c-0.002,0.006-0.004,0.011-0.004,0.017h-0.002c-0.002,0.006-0.002,0.012-0.004,0.018
		h-0.002c-0.002,0.006-0.002,0.012-0.004,0.018h-0.002c-0.002,0.006-0.004,0.012-0.006,0.018l0,0
		c-0.002,0.006-0.002,0.012-0.006,0.018l0,0c-0.002,0.006-0.004,0.013-0.006,0.019l0,0c-0.002,0.006-0.004,0.012-0.006,0.018l0,0
		c-0.002,0.006-0.006,0.013-0.008,0.019l0,0c-0.002,0.007-0.004,0.012-0.006,0.018l0,0c-0.002,0.006-0.004,0.013-0.008,0.018l0,0
		c-0.002,0.006-0.004,0.013-0.006,0.019l0,0c-0.004,0.006-0.006,0.013-0.008,0.018l0,0c-0.004,0.006-0.004,0.013-0.008,0.019l0,0
		c-0.002,0.006-0.006,0.013-0.008,0.02l0,0c-0.002,0.006-0.004,0.012-0.008,0.018l0,0c-0.002,0.007-0.006,0.013-0.008,0.019l0,0
		c-0.002,0.006-0.006,0.012-0.008,0.018l0,0c-0.004,0.007-0.006,0.014-0.008,0.02l0,0c-0.004,0.006-0.006,0.013-0.01,0.019l0,0
		c-0.002,0.007-0.006,0.014-0.008,0.02l0,0c-0.004,0.006-0.006,0.012-0.008,0.019l0,0c-0.004,0.006-0.008,0.013-0.01,0.018l0,0
		c-0.004,0.007-0.006,0.013-0.01,0.019l0,0c-0.002,0.007-0.006,0.014-0.008,0.02l0,0c-0.004,0.007-0.006,0.013-0.01,0.019l0,0
		c-0.004,0.007-0.006,0.013-0.01,0.02l0,0c-0.004,0.006-0.006,0.013-0.01,0.018l0,0c-0.002,0.007-0.006,0.014-0.01,0.02l0,0
		c-0.002,0.007-0.006,0.013-0.008,0.02h-0.002c-0.002,0.006-0.006,0.013-0.01,0.019l0,0c-0.002,0.007-0.006,0.013-0.01,0.02l0,0
		c-0.004,0.007-0.006,0.013-0.01,0.019l0,0c-0.004,0.007-0.006,0.013-0.01,0.02l0,0c-0.004,0.006-0.008,0.013-0.01,0.018h-0.002
		c-0.002,0.007-0.006,0.013-0.01,0.02l0,0c-0.004,0.006-0.008,0.013-0.01,0.02h-0.002c-0.002,0.006-0.006,0.012-0.01,0.019l0,0
		c-0.002,0.006-0.008,0.013-0.01,0.018l0,0c-0.004,0.007-0.008,0.014-0.012,0.02l0,0c-0.004,0.006-0.008,0.013-0.012,0.019l0,0
		c-0.002,0.007-0.006,0.013-0.01,0.019l0,0c-0.004,0.006-0.008,0.013-0.012,0.019l0,0c-0.004,0.006-0.008,0.013-0.01,0.019h-0.002
		c-0.002,0.006-0.006,0.012-0.01,0.017l0,0c-0.004,0.007-0.008,0.013-0.012,0.019l0,0c-0.004,0.006-0.008,0.013-0.012,0.019l0,0
		c-0.004,0.006-0.006,0.012-0.01,0.018l0,0c-0.004,0.007-0.008,0.013-0.012,0.019l0,0c-0.004,0.006-0.008,0.012-0.012,0.018l0,0
		c-0.004,0.006-0.008,0.013-0.012,0.018l0,0c-0.004,0.006-0.008,0.012-0.012,0.017l0,0c-0.004,0.006-0.008,0.013-0.012,0.019l0,0
		c-0.004,0.006-0.008,0.012-0.012,0.018l0,0c-0.004,0.006-0.008,0.012-0.012,0.018l0,0c-0.004,0.006-0.008,0.012-0.012,0.018l0,0
		c-0.004,0.006-0.008,0.012-0.012,0.018l0,0c-0.004,0.006-0.008,0.012-0.012,0.017l0,0c-0.006,0.006-0.01,0.012-0.014,0.018l0,0
		c-0.004,0.006-0.008,0.012-0.012,0.018l0,0c-0.004,0.006-0.01,0.012-0.014,0.018l0,0c-0.004,0.005-0.008,0.012-0.012,0.017l0,0
		c-0.004,0.006-0.008,0.012-0.012,0.018l0,0c-0.004,0.006-0.01,0.011-0.012,0.017h-0.002c-0.004,0.006-0.008,0.011-0.012,0.017l0,0
		c-0.004,0.005-0.008,0.011-0.012,0.017l0,0c-0.006,0.005-0.01,0.011-0.014,0.017l0,0c-0.004,0.005-0.008,0.011-0.012,0.017h-0.002
		c-0.004,0.005-0.008,0.011-0.012,0.016l0,0c-0.004,0.006-0.008,0.011-0.012,0.017l0,0c-0.006,0.005-0.01,0.011-0.014,0.017l0,0
		c-0.004,0.005-0.008,0.01-0.014,0.016l0,0c-0.004,0.005-0.008,0.01-0.012,0.016l0,0c-0.004,0.005-0.008,0.01-0.014,0.015l0,0
		c-0.004,0.006-0.008,0.011-0.014,0.017l0,0c-0.004,0.005-0.008,0.01-0.012,0.015l0,0c-0.004,0.006-0.01,0.011-0.014,0.016l0,0
		c-0.004,0.005-0.008,0.01-0.012,0.015l0,0c-0.006,0.006-0.01,0.011-0.014,0.016l0,0c-0.006,0.005-0.01,0.01-0.014,0.015l0,0
		c-0.004,0.005-0.01,0.01-0.014,0.015l0,0c-0.004,0.005-0.008,0.01-0.012,0.015h-0.002c-0.004,0.004-0.008,0.01-0.012,0.014l0,0
		c-0.006,0.005-0.01,0.01-0.014,0.015l0,0c-0.006,0.004-0.01,0.009-0.014,0.014l0,0c-0.004,0.005-0.008,0.01-0.014,0.014l0,0
		c-0.004,0.004-0.008,0.01-0.014,0.014l0,0c-0.004,0.004-0.008,0.009-0.012,0.014c0,0,0-0.001,0,0
		c-0.006,0.004-0.01,0.009-0.014,0.013l0,0c-0.006,0.004-0.008,0.009-0.014,0.013l0,0c-0.004,0.004-0.008,0.009-0.012,0.014h-0.002
		c-0.004,0.004-0.008,0.008-0.012,0.012h-0.002c-0.004,0.005-0.008,0.009-0.012,0.013l0,0c-0.006,0.004-0.01,0.008-0.014,0.012l0,0
		c-0.006,0.004-0.01,0.009-0.014,0.013l0,0c-0.004,0.004-0.01,0.008-0.014,0.012l0,0c-0.004,0.004-0.01,0.008-0.014,0.012
		c0,0,0-0.001,0,0c-0.004,0.003-0.008,0.007-0.012,0.011l0,0c-0.004,0.004-0.01,0.008-0.014,0.012l0,0
		c-0.004,0.003-0.01,0.007-0.014,0.011l0,0c-0.004,0.004-0.01,0.007-0.014,0.011c0,0,0-0.001,0,0
		c-0.004,0.003-0.008,0.007-0.012,0.01l0,0c-0.006,0.003-0.01,0.008-0.014,0.011l0,0c-0.004,0.003-0.01,0.007-0.014,0.01l0,0
		c-0.004,0.003-0.01,0.006-0.014,0.01l0,0c-0.004,0.003-0.008,0.006-0.012,0.009l0,0l-0.039,0.018l0,0
		c-0.016,0.004-0.033,0.008-0.049,0.012l0,0c-0.016,0.003-0.031,0.007-0.049,0.011l0,0c-0.016,0.003-0.031,0.007-0.047,0.01h-0.002
		c-0.016,0.004-0.031,0.007-0.047,0.011l0,0c-0.018,0.003-0.033,0.007-0.051,0.01l0,0c-0.016,0.004-0.031,0.007-0.047,0.011l0,0
		c-0.018,0.003-0.033,0.006-0.049,0.009h-0.002c-0.016,0.004-0.031,0.007-0.047,0.01l0,0c-0.018,0.003-0.033,0.007-0.051,0.009l0,0
		c-0.016,0.004-0.031,0.007-0.049,0.01l0,0c-0.016,0.003-0.033,0.006-0.049,0.009l0,0c-0.018,0.003-0.033,0.006-0.049,0.009l0,0
		c-0.018,0.002-0.033,0.005-0.051,0.008l0,0c-0.016,0.003-0.031,0.006-0.049,0.008l0,0c-0.016,0.003-0.033,0.006-0.051,0.008l0,0
		c-0.016,0.003-0.031,0.005-0.049,0.008l0,0c-0.016,0.002-0.033,0.005-0.049,0.007h-0.002c-0.016,0.003-0.033,0.006-0.049,0.008l0,0
		c-0.018,0.002-0.033,0.005-0.051,0.007l0,0c-0.016,0.003-0.033,0.005-0.049,0.008l0,0c-0.018,0.002-0.035,0.004-0.051,0.006l0,0
		c-0.018,0.003-0.033,0.005-0.051,0.007l0,0c-0.016,0.002-0.033,0.004-0.051,0.006l0,0c-0.016,0.002-0.031,0.003-0.049,0.005l0,0
		c-0.018,0.003-0.033,0.005-0.051,0.007l0,0c-0.018,0.001-0.033,0.003-0.051,0.005l0,0c-0.016,0.002-0.033,0.004-0.051,0.006l0,0
		c-0.018,0.002-0.033,0.003-0.049,0.005l0,0c-0.018,0.002-0.035,0.004-0.051,0.005l0,0c-0.018,0.002-0.035,0.003-0.051,0.005h-0.002
		c-0.016,0.002-0.033,0.003-0.049,0.005l0,0c-0.018,0.001-0.033,0.003-0.051,0.004l0,0c-0.018,0.001-0.035,0.003-0.051,0.005l0,0
		c-0.018,0.001-0.035,0.003-0.051,0.004l0,0c-0.018,0.002-0.035,0.003-0.051,0.004l0,0c-0.018,0.001-0.035,0.003-0.051,0.004l0,0
		c-0.018,0.001-0.035,0.002-0.051,0.003h-0.002c-0.016,0.002-0.033,0.003-0.049,0.004l0,0c-0.018,0.001-0.035,0.002-0.051,0.004l0,0
		c-0.018,0.001-0.033,0.001-0.051,0.002l0,0c-0.018,0.001-0.035,0.003-0.053,0.003l0,0c-0.016,0.001-0.033,0.002-0.049,0.003h-0.002
		c-0.016,0.001-0.033,0.002-0.049,0.003h-0.002c-0.016,0-0.033,0.001-0.049,0.002l0,0c-0.018,0.001-0.035,0.001-0.051,0.003l0,0
		c-0.018,0-0.035,0-0.051,0.001h-0.002c-0.016,0.001-0.033,0.001-0.049,0.002l0,0c-0.018,0-0.035,0.001-0.051,0.001l0,0
		c-0.018,0.001-0.035,0.002-0.051,0.002l0,0l-0.049,0.002v23.823c3.965,0.118,7.975,0.155,10.422-0.981
		c2.461-1.143,3.326-3.604,0.838-8.695c-0.209-0.425,0.547-0.85,0.844-0.475c4.672,5.908,2.705,9.483-0.035,11.541
		c-1.303,0.979-2.775,1.595-3.762,1.953c1.064,0.64,1.662,1.545,1.893,2.592c0.23,1.052,0.078,2.239-0.348,3.425
		c-0.215,0.596-0.498,1.194-0.838,1.775c-0.027,0.049-0.205,0.194-0.262,0.214c-2.297,0.802-5.363,2.002-8.752,3.523V297.506z
		 M116.885,288.563c0.158-0.404,0.816-0.379,0.941,0.035c2.605,8.607,7.648,16.551,14.623,22.248
		c4.732,3.867,10.355,6.701,16.709,8.008v-2.773c-0.176-0.201-0.346-0.41-0.514-0.623c-1.705-2.18-2.932-4.889-3.092-7.893
		c-0.16-3.002,0.742-6.297,3.285-9.648c0.104-0.137,0.211-0.273,0.32-0.41v-58.762c-5.641,2.531-12.184,5.95-17.588,9.906
		c-5.188,3.797-9.32,8.079-10.558,12.514c1.229-0.729,2.482-1.268,3.844-1.628c1.734-0.458,3.639-0.622,5.893-0.509
		c0.465,0.023,0.574,0.773,0.131,0.912c-1.26,0.396-2.537,0.894-3.803,1.488c-5.191,2.442-10.201,6.532-13.246,12.016
		c-3.041,5.477-4.123,12.357-1.469,20.391c0.424,1.281,0.943,2.592,1.562,3.93c0.623-1.533,1.092-3.17,1.555-4.791
		C115.904,291.475,116.33,289.986,116.885,288.563L116.885,288.563z M149.158,193.515c-7.006,1.214-14.639,4.13-20.037,6.193
		c-0.568,0.218-0.828,0.318-1.047,0.401c0.281,1.516,0.117,2.911-0.043,4.264c-0.309,2.606-0.598,5.04,2.779,7.648
		c1.801-3.479,4.512-3.833,7.16-2.704c1.783,0.76,3.525,2.228,4.902,3.842c1.377,1.616,2.396,3.395,2.729,4.767
		c0.326,1.337,0.043,2.353-1.076,2.67c-0.1,0.065-0.219,0.118-0.357,0.158c-0.646,0.189-2.061,0.209-3.488-0.001
		c-1.441-0.211-2.938-0.659-3.752-1.408c-0.279-0.257-0.486-0.549-0.594-0.88c-0.096-0.204-0.182-0.363-0.254-0.483
		c-0.062,0.265-0.098,0.604-0.119,0.896c0.084,1.393,0.377,2.793,0.887,4.014c0.416,0.999,0.979,1.873,1.688,2.518
		c0.279-0.09,0.605-0.206,0.965-0.333c1.287-0.456,2.994-1.061,4.824-1.311c0.002-0.001,0.07-0.005,0.072-0.005
		c1.209,0.001,2.502,0.042,3.812,0.083l0.949,0.029V200.05h-0.002l0,0c-0.018,0-0.033,0.001-0.051,0.002l0,0
		c-0.018,0-0.035,0-0.051,0.001v-0.001c-0.016,0.001-0.033,0.001-0.051,0.002l0,0c-0.018,0-0.033,0-0.051,0l0,0
		c-0.016,0.001-0.033,0.001-0.051,0.001l0,0c-0.016,0.001-0.033,0-0.049,0.001h-0.002c-0.016,0-0.033,0-0.049,0l0,0
		c-0.018,0-0.035,0.001-0.051,0.001l0,0c-0.018,0-0.033,0-0.051,0l0,0c-0.016,0-0.033,0-0.049,0h-0.002c-0.016,0-0.033,0-0.049,0
		l0,0c-0.018,0-0.033,0-0.051-0.001l0,0c-0.016,0-0.031,0-0.049,0l0,0c-0.018,0-0.033-0.001-0.049-0.001h-0.002
		c-0.016,0-0.033,0.001-0.049,0l0,0c-0.018,0-0.033-0.001-0.051-0.001l0,0c-0.016,0-0.031,0-0.049,0l0,0
		c-0.018-0.001-0.033-0.001-0.049-0.001h-0.002c-0.016-0.001-0.031-0.001-0.049-0.001l0,0c-0.016,0-0.033-0.001-0.049-0.001l0,0
		c-0.016-0.001-0.033-0.001-0.049-0.001l0,0c-0.018-0.001-0.033-0.002-0.049-0.002l0,0c-0.018-0.001-0.033,0-0.049-0.001l0,0
		c-0.018-0.001-0.033-0.001-0.049-0.002l0,0c-0.018,0-0.033-0.001-0.049-0.001l0,0c-0.018-0.001-0.033-0.002-0.049-0.002l0,0
		c-0.016-0.001-0.033-0.001-0.049-0.002l0,0c-0.016,0-0.031-0.001-0.049-0.002l0,0c-0.016,0-0.031-0.001-0.047-0.002l0,0
		c-0.016,0-0.031-0.002-0.049-0.002l0,0c-0.016-0.001-0.031-0.001-0.047-0.002l0,0c-0.018-0.001-0.033-0.002-0.049-0.002l0,0
		c-0.016-0.001-0.031-0.002-0.047-0.002l0,0c-0.016-0.002-0.033-0.002-0.047-0.003h-0.002c-0.016-0.001-0.031-0.002-0.047-0.003l0,0
		c-0.016,0-0.031-0.001-0.047-0.002l0,0c-0.016-0.001-0.031-0.002-0.047-0.003l0,0c-0.016-0.001-0.031-0.002-0.047-0.003l0,0
		c-0.016-0.001-0.031-0.002-0.047-0.003l0,0c-0.016-0.001-0.031-0.002-0.045-0.003h-0.002c-0.014-0.001-0.029-0.002-0.045-0.003l0,0
		c-0.016,0-0.031-0.002-0.047-0.003l0,0c-0.016-0.001-0.029-0.002-0.045-0.003l0,0c-0.016-0.001-0.031-0.002-0.047-0.003l0,0
		c-0.014-0.001-0.029-0.003-0.045-0.003l0,0c-0.016-0.002-0.029-0.003-0.045-0.004l0,0c-0.016-0.001-0.031-0.002-0.045-0.003l0,0
		c-0.016-0.001-0.031-0.002-0.047-0.003l0,0c-0.014-0.001-0.029-0.003-0.043-0.004l0,0c-0.016-0.001-0.031-0.002-0.045-0.003l0,0
		c-0.016-0.002-0.029-0.002-0.045-0.004l0,0c-0.016-0.001-0.029-0.002-0.043-0.003h-0.002c-0.014-0.001-0.027-0.003-0.043-0.003l0,0
		c-0.014-0.002-0.029-0.003-0.043-0.005l0,0c-0.016-0.001-0.029-0.002-0.043-0.003h-0.002c-0.014-0.001-0.027-0.003-0.043-0.004l0,0
		c-0.014-0.001-0.027-0.002-0.043-0.004l0,0c-0.014-0.001-0.027-0.002-0.041-0.004h-0.002c-0.014-0.001-0.027-0.002-0.041-0.003l0,0
		c-0.016-0.001-0.029-0.003-0.043-0.004l0,0c-0.014-0.001-0.027-0.003-0.041-0.004l0,0c-0.016-0.001-0.029-0.003-0.043-0.004l0,0
		c-0.014-0.001-0.027-0.003-0.041-0.004l0,0c-0.014-0.002-0.027-0.003-0.041-0.004l0,0c-0.014-0.001-0.027-0.003-0.041-0.004l0,0
		c-0.014-0.002-0.027-0.003-0.041-0.004l0,0c-0.014-0.002-0.027-0.003-0.041-0.004l0,0c-0.014-0.002-0.025-0.003-0.039-0.004l0,0
		c-0.014-0.001-0.027-0.003-0.039-0.004h-0.002c-0.012-0.001-0.025-0.003-0.039-0.004l0,0c-0.014-0.001-0.025-0.003-0.039-0.004l0,0
		c-0.014-0.001-0.025-0.003-0.039-0.004l0,0c-0.014-0.001-0.025-0.003-0.039-0.004l0,0c-0.014-0.001-0.025-0.003-0.037-0.004h-0.002
		c-0.012-0.002-0.023-0.003-0.037-0.004l0,0c-0.012-0.002-0.025-0.003-0.037-0.004l0,0c-0.014-0.001-0.025-0.003-0.037-0.004l0,0
		c-0.014-0.002-0.025-0.003-0.037-0.005l0,0l-0.209-0.022l0.137-0.156l0,0c0.01-0.012,0.021-0.023,0.031-0.036l0,0
		c0.012-0.012,0.021-0.024,0.033-0.036l0,0c0.012-0.012,0.021-0.024,0.033-0.035l0,0c0.012-0.013,0.023-0.024,0.035-0.037l0,0
		c0.012-0.012,0.023-0.023,0.035-0.036l0,0c0.014-0.012,0.025-0.023,0.037-0.036l0,0c0.012-0.012,0.025-0.023,0.037-0.036
		c0,0,0,0.001,0,0c0.014-0.012,0.025-0.024,0.037-0.036h0.002c0.012-0.013,0.025-0.024,0.037-0.036l0,0
		c0.014-0.013,0.027-0.024,0.039-0.037c0,0,0,0.001,0.002,0c0.014-0.012,0.025-0.023,0.039-0.035l0,0
		c0.014-0.013,0.027-0.025,0.041-0.037l0,0c0.014-0.012,0.027-0.024,0.043-0.036l0,0c0.014-0.012,0.027-0.024,0.043-0.036l0,0
		c0.014-0.013,0.027-0.024,0.043-0.036l0,0c0.014-0.012,0.029-0.024,0.043-0.037l0,0c0.016-0.012,0.031-0.023,0.045-0.035l0,0
		c0.016-0.012,0.031-0.024,0.045-0.036c0,0,0,0,0.002,0c0.014-0.012,0.029-0.024,0.045-0.036l0,0
		c0.016-0.012,0.031-0.023,0.047-0.035l0,0c0.016-0.012,0.031-0.023,0.047-0.035c0,0,0,0,0.002,0
		c0.016-0.012,0.031-0.023,0.047-0.035l0,0c0.018-0.012,0.033-0.023,0.049-0.035l0,0c0.018-0.012,0.033-0.024,0.051-0.036l0,0
		c0.018-0.012,0.033-0.024,0.049-0.034c0,0,0,0,0.002,0c0.016-0.012,0.033-0.024,0.051-0.035l0,0
		c0.016-0.012,0.033-0.022,0.051-0.035l0,0c0.018-0.011,0.035-0.023,0.053-0.034l0,0c0.018-0.012,0.035-0.022,0.053-0.034l0,0
		c0.018-0.011,0.035-0.022,0.053-0.034l0,0c0.018-0.011,0.037-0.022,0.055-0.033l0,0c0.018-0.012,0.037-0.023,0.055-0.034l0,0
		c0.02-0.012,0.037-0.022,0.055-0.033c0,0,0,0,0.002,0c0.018-0.011,0.035-0.022,0.055-0.033l0,0c0.02-0.011,0.037-0.021,0.057-0.032
		l0,0c0.02-0.011,0.037-0.022,0.057-0.033l0,0c0.02-0.011,0.039-0.021,0.059-0.031l0,0c0.02-0.011,0.039-0.021,0.057-0.032
		c0,0,0,0,0.002,0c0.02-0.011,0.037-0.021,0.059-0.031l0,0c0.02-0.011,0.039-0.022,0.059-0.032l0,0
		c0.02-0.01,0.039-0.021,0.061-0.03l0,0c0.02-0.01,0.039-0.02,0.061-0.03l0,0c0.02-0.011,0.039-0.02,0.061-0.03l0,0
		c0.02-0.011,0.041-0.021,0.061-0.03l0,0c0.021-0.011,0.041-0.02,0.062-0.029l0,0c0.02-0.01,0.041-0.02,0.062-0.029l0,0
		c0.021-0.011,0.041-0.02,0.062-0.029l0,0c0.021-0.009,0.043-0.02,0.064-0.029l0,0c0.021-0.009,0.041-0.018,0.064-0.027l0,0
		c0.021-0.009,0.041-0.019,0.062-0.027h0.002c0.021-0.01,0.041-0.019,0.064-0.027l0,0c0.021-0.009,0.043-0.019,0.064-0.027l0,0
		c0.021-0.009,0.043-0.017,0.066-0.025l0,0c0.021-0.009,0.043-0.018,0.064-0.026h0.002c0.021-0.009,0.043-0.017,0.066-0.025l0,0
		c0.021-0.008,0.045-0.018,0.066-0.025h0.002c0.021-0.009,0.043-0.017,0.066-0.024l0,0c0.021-0.008,0.045-0.016,0.066-0.023h0.002
		c0.021-0.009,0.045-0.016,0.066-0.023h0.002c0.021-0.008,0.045-0.017,0.068-0.023l0,0c0.023-0.008,0.045-0.015,0.068-0.023l0,0
		c0.023-0.008,0.047-0.016,0.068-0.022h0.002c0.023-0.007,0.047-0.015,0.068-0.021h0.002c0.023-0.007,0.047-0.014,0.07-0.021l0,0
		c0.018-0.005,0.037-0.011,0.055-0.016l0,0c0.02-0.005,0.037-0.011,0.057-0.016l0,0c0.02-0.006,0.037-0.011,0.057-0.015l0,0
		l0.027-0.008V193.515z"/>
	<path fill-rule="evenodd" clip-rule="evenodd" d="M135.967,216.51c-1.82,0.232-3.553,0.773-5.188,1.283
		c-4.322,1.347-7.967,2.483-10.787-2.707c-0.035-0.063,0.057-0.139,0.119-0.098c4.154,2.741,8.652,1.346,12.674,0.098
		c3.459-1.074,6.57-2.04,8.854-0.206c0.031,0.025,0.035,0.078,0.01,0.108c-0.1,0.109-0.854,0.27-1.803,0.472
		c-1.361,0.288-3.131,0.665-3.852,1.041C135.992,216.502,135.969,216.51,135.967,216.51z"/>
	<path fill-rule="evenodd" clip-rule="evenodd" d="M97.193,314.178l6.416-79.452c-1.756,0.064-3.51-0.013-5.207-0.088
		c-0.031,0-0.062-0.003-0.092-0.004c-1.859-0.082-3.248-2.321-2.443-3.95c0.822-1.659,1.75-3.36,2.828-4.919
		c1.139-1.646,2.453-3.17,3.994-4.393c0.682-0.541,1.383-0.901,2.088-1.109l0.115-1.426l-31.111-0.145l0.426,5.877
		c3.01,1.365,5.631,3.499,8.1,5.514l-0.004,0.005c0.082,0.066,0.16,0.131,0.238,0.192l0.004-0.004l-0.004,0.004
		c0.045,0.035,0.088,0.07,0.131,0.105c1.352,1.235,1.209,3.449-0.318,4.161c-0.144,0.066-0.291,0.136-0.437,0.203
		c-0.322,0.15-0.648,0.302-0.977,0.453c-0.361-0.293-0.811-0.653-1.355-1.095l-0.006,0.007c0.131,0.104,0.746,0.6,1.357,1.091
		c-0.234,0.107-0.469,0.215-0.705,0.322c0.037,0.017,0.076,0.035,0.115,0.053c0.512,0.23,0.924,0.421,1.262,0.58
		c0.541,0.255,0.926,0.44,1.191,0.569l0.014,0.007c1.789,0.871,2.217,3.373,0.74,4.43c-0.783,0.561-1.588,1.129-2.385,1.678
		c1.609,0.624,2.434,2.756,1.451,4.06c-0.803,1.067-2.533,3.188-4.428,4.807c-0.383,0.326-0.779,0.639-1.184,0.926
		c-0.244,0.172-0.488,0.334-0.732,0.482l0.02,0.254l0,0v0.002v0.001l0.004,0.062v0.001l0.094,1.3
		c1.002,17.691,3.051,41.363,4.572,60.717c0.838-0.068,1.793,0.002,2.879,0.248C87.654,316.57,93.965,313.721,97.193,314.178
		L97.193,314.178z M82.545,230.276c-0.317-0.258,5.996,4.841,0.127,0.109C82.631,230.348,82.59,230.312,82.545,230.276
		L82.545,230.276z M74.627,230.362c0.535,0.343,1.064,0.711,1.592,1.1c-0.49,0.212-0.98,0.417-1.467,0.607L74.627,230.362
		L74.627,230.362z M75.236,238.77c0.48,0.184,0.965,0.375,1.449,0.577c-0.055,0.035-0.109,0.072-0.162,0.108
		c-0.396,0.259-0.791,0.512-1.184,0.756L75.236,238.77L75.236,238.77z M80.939,235.203c2.299,1.852,1.16,0.938-0.004,0.003
		C80.937,235.205,80.937,235.204,80.939,235.203L80.939,235.203z M104.033,229.469c-0.473,0.038-0.953,0.061-1.436,0.073
		c0.107-0.163,0.217-0.324,0.328-0.485c0.4-0.579,0.824-1.135,1.275-1.657L104.033,229.469z"/>
	<path fill-rule="evenodd" clip-rule="evenodd" d="M106.566,123.721c-5.322-1.134-11.846-1.476-18.15-1.255
		c-6.305,0.22-12.789,1.016-18.018,2.517c-7.756-4.593-8.746-13.444-0.762-17.246c5.924-1.204,12.221-2.126,18.184-2.334
		c5.963-0.208,12.309,0.272,18.303,1.059C114.353,109.698,113.982,118.598,106.566,123.721z"/>
	<path fill-rule="evenodd" clip-rule="evenodd" d="M159.076,122.818c-6.168,0-12.744,0.741-17.871,2.312
		c0.006,0.206,0.012,4.393,0.018,8.472c5.973-0.167,11.926-0.245,17.854-0.245c5.93,0,11.883,0.078,17.855,0.246
		c0.004-4.079,0.012-8.267,0.016-8.473C171.822,123.56,165.244,122.818,159.076,122.818z"/>
	<path fill-rule="evenodd" clip-rule="evenodd" d="M88.543,126.092c-6.164,0.215-12.711,1.186-17.779,2.935
		c0.023,0.419,0.227,5.666,0.418,10.663c11.783-1.832,23.656-3.22,35.559-4.222c-0.125-3.657-0.252-7.377-0.256-7.688
		C101.307,126.388,94.707,125.877,88.543,126.092z"/>
	<path fill-rule="evenodd" clip-rule="evenodd" fill="#871627" d="M32.836,359.066c88.076-19.744,183.07-15.076,252.637,0
		l-4.287,24.549c4.963,0.91,10.145,1.957,15.406,3.16l-7.102,33.994c-9.24-2.408-37.527-7.41-47.904-7.955l34.652-9.371v-0.59
		c-68.121-14.264-154.004-17.895-235.199,0.211v0.379l34.879,9.359c-10.186,0.484-38.822,5.541-48.131,7.967l-7.1-33.994
		c5.615-1.283,11.139-2.391,16.402-3.342L32.836,359.066L32.836,359.066z M54.07,388.125l3.69-0.662l3.193-19.129l-2.648,0.475
		l-2.48,14.803l-7.467-13.014l-3.926,0.705L54.07,388.125L54.07,388.125z M66.547,385.748l3.691-0.529l-2.494-18.096l-3.691,0.529
		L66.547,385.748L66.547,385.748z M74.773,384.27l3.488-0.436l-0.893-7.414l2.031-0.254l5.314,6.859l4.51-0.564l-6.842-7.738
		c1.039-0.635,1.803-1.465,2.289-2.48c0.488-1.021,0.666-2.062,0.539-3.125c-0.108-0.891-0.408-1.66-0.908-2.316
		c-0.496-0.654-1.125-1.111-1.877-1.369c-0.756-0.258-1.814-0.305-3.178-0.133l-6.658,0.834L74.773,384.27L74.773,384.27z
		 M77.068,373.932l0.85-0.105c1.527-0.191,2.541-0.662,3.037-1.412c0.498-0.75,0.695-1.557,0.594-2.414
		c-0.092-0.744-0.4-1.305-0.924-1.682c-0.525-0.379-1.512-0.477-2.965-0.295l-1.283,0.162L77.068,373.932L77.068,373.932z
		 M96.076,381.678l3.727-0.332l-1.348-15.707l6.394-0.568l-0.215-2.5l-16.518,1.475l0.215,2.498l6.396-0.57L96.076,381.678
		L96.076,381.678z M107.371,362.377l0.766,11.158c0.145,2.109,0.559,3.627,1.248,4.545c0.686,0.922,1.576,1.586,2.672,2.002
		c1.098,0.412,2.385,0.564,3.869,0.459c1.506-0.107,2.729-0.457,3.68-1.053c0.945-0.594,1.645-1.371,2.102-2.324
		c0.457-0.949,0.613-2.482,0.469-4.592l-0.768-11.197l-3.236,0.232l0.783,11.439c0.127,1.857-0.1,3.129-0.678,3.824
		c-0.578,0.693-1.398,1.076-2.453,1.15c-1.072,0.078-1.965-0.189-2.682-0.797c-0.719-0.611-1.148-1.924-1.285-3.941l-0.768-11.172
		L107.371,362.377L107.371,362.377z M126.023,379.033c1.936,0.34,3.627,0.486,5.074,0.435c2.441-0.086,4.203-0.682,5.287-1.781
		c1.082-1.102,1.598-2.398,1.545-3.898c-0.035-1.043-0.336-1.973-0.902-2.797c-0.574-0.811-1.867-1.742-3.885-2.801l-1.318-0.684
		c-1.145-0.6-1.865-1.08-2.154-1.441c-0.297-0.359-0.455-0.75-0.471-1.18c-0.02-0.561,0.201-1.045,0.658-1.461
		c0.457-0.418,1.135-0.641,2.035-0.672c1.088-0.039,2.57,0.258,4.445,0.889l-0.102-2.924c-1.822-0.353-3.453-0.506-4.895-0.455
		c-1.934,0.07-3.396,0.611-4.396,1.629c-0.994,1.014-1.471,2.207-1.424,3.58c0.037,1.096,0.381,2.049,1.029,2.855
		c0.635,0.809,1.834,1.674,3.596,2.588l1.229,0.637c1.146,0.6,1.871,1.098,2.17,1.49c0.303,0.404,0.463,0.857,0.48,1.367
		c0.023,0.664-0.213,1.246-0.713,1.74c-0.5,0.496-1.27,0.764-2.318,0.801c-0.578,0.02-1.217-0.016-1.91-0.105
		c-0.693-0.09-1.752-0.406-3.168-0.945L126.023,379.033L126.023,379.033z M149.125,378.439l3.729-0.066l-0.312-18.271l-3.729,0.066
		L149.125,378.439L149.125,378.439z M157.348,378.479h2.932v-13.975l4.289,12.754h3.002l4.373-12.568v13.789h3.439v-18.273h-4.332
		l-4.447,12.854l-4.324-12.854h-4.932V378.479L157.348,378.479z M179.857,378.813l3.658,0.129l0.244-7.156l1.521,0.055
		c2.119,0.076,3.826-0.398,5.127-1.424c1.297-1.025,1.982-2.557,2.053-4.596c0.035-1.061-0.121-1.947-0.463-2.66
		c-0.348-0.713-0.879-1.275-1.594-1.686c-0.715-0.408-1.967-0.643-3.76-0.707l-6.16-0.219L179.857,378.813L179.857,378.813z
		 M183.846,369.279l0.703,0.025c1.367,0.049,2.387-0.252,3.053-0.898c0.664-0.646,1.014-1.424,1.045-2.328
		c0.018-0.51-0.07-0.977-0.258-1.398c-0.189-0.424-0.488-0.758-0.904-1.014c-0.418-0.256-1.092-0.396-2.029-0.432l-1.4-0.049
		L183.846,369.279L183.846,369.279z M193.109,379.506l2.711,0.145l2.107-4.77l7.402,0.395l1.607,4.969l3.828,0.205l-6.023-18.621
		l-3.736-0.199L193.109,379.506L193.109,379.506z M198.978,372.502l5.553,0.297l-2.4-7.426L198.978,372.502L198.978,372.502z
		 M217.75,381.117l3.73,0.332l7.941-17.635l-2.678-0.238l-6.154,13.645l-3.91-14.543l-3.969-0.354L217.75,381.117L217.75,381.117z
		 M230.404,382.764l3.709,0.399l1.873-18.174l-3.709-0.398L230.404,382.764L230.404,382.764z M238.617,383.602l7.314,1.049
		c2.141,0.307,3.885,0.135,5.23-0.512c1.346-0.645,2.438-1.633,3.275-2.961c0.838-1.322,1.383-2.887,1.633-4.69
		c0.254-1.84,0.131-3.463-0.367-4.857c-0.494-1.398-1.264-2.514-2.314-3.346c-1.045-0.83-2.592-1.393-4.639-1.686l-7.639-1.094
		L238.617,383.602L238.617,383.602z M242.664,381.564l2.758,0.395c1.438,0.207,2.57,0.135,3.398-0.211
		c0.828-0.346,1.535-1.031,2.129-2.057c0.596-1.025,0.984-2.209,1.168-3.545c0.176-1.275,0.115-2.441-0.178-3.488
		c-0.297-1.053-0.793-1.885-1.484-2.502c-0.693-0.619-1.949-1.059-3.762-1.318l-2.232-0.32L242.664,381.564L242.664,381.564z
		 M256.092,386.363l2.684,0.432l2.584-4.52l7.322,1.184l1.088,5.111l3.785,0.611l-4.08-19.16l-3.695-0.598L256.092,386.363
		L256.092,386.363z M262.648,380.021l5.492,0.887l-1.627-7.641L262.648,380.021z"/>
	<path fill-rule="evenodd" clip-rule="evenodd" fill="#871627" d="M159.004,99.432c-6.256,0.042-26.184-3.576-26.289-16.642
		c-0.041-4.968,4.162-9.634,6.662-13.915c15.418-20.462,24.119-29.84,13.209-48.931c3.391,0.588,8.568,5.287,11.246,8.729
		c4.729,8.057,5.176,16.449,2.141,25.766c-3.195,7.756-13.662,17.444-10.373,26.343c3.072,8.314,13.805,8.975,10.316,0.238
		c-1.803-4.509-4.029-4.954-2.623-10.16c2.264-8.384,13.17-19,8.393-29.094c10.994,6.208,4.246,23.138,5.283,26.092
		c0.578,2.456,9.07,9.926,8.438,14.989C183.853,95.26,169.295,99.998,159.004,99.432z"/>
	<path fill-rule="evenodd" clip-rule="evenodd" fill="#871627" d="M88.867,102.67c-6.256,0.043-26.184-3.576-26.291-16.641
		c-0.039-4.968,4.164-9.635,6.664-13.915c15.418-20.462,24.119-29.84,13.207-48.931c3.393,0.587,8.568,5.287,11.246,8.729
		c4.73,8.057,5.178,16.45,2.143,25.767c-3.197,7.756-13.662,17.444-10.375,26.342c3.072,8.315,13.805,8.975,10.316,0.239
		c-1.801-4.51-4.029-4.954-2.623-10.16c2.266-8.384,13.172-19.001,8.395-29.095c10.992,6.209,4.246,23.138,5.283,26.093
		c0.578,2.455,9.07,9.926,8.438,14.989C113.717,98.499,99.158,103.236,88.867,102.67z"/>
	<path fill-rule="evenodd" clip-rule="evenodd" fill="#871627" d="M229.141,102.67c-6.256,0.043-26.184-3.576-26.289-16.641
		c-0.041-4.968,4.162-9.635,6.662-13.915c15.418-20.462,24.121-29.84,13.209-48.931c3.393,0.587,8.568,5.287,11.246,8.729
		c4.73,8.057,5.176,16.45,2.143,25.767c-3.197,7.756-13.662,17.444-10.375,26.342c3.072,8.315,13.805,8.975,10.316,0.239
		c-1.801-4.51-4.029-4.954-2.623-10.16c2.266-8.384,13.17-19.001,8.393-29.095c10.994,6.209,4.248,23.138,5.285,26.093
		c0.578,2.455,9.068,9.926,8.436,14.989C253.99,98.499,239.434,103.236,229.141,102.67z"/>
	<path fill-rule="evenodd" clip-rule="evenodd" d="M211.588,123.721c5.32-1.134,11.846-1.476,18.15-1.255
		c6.305,0.22,12.789,1.016,18.018,2.517c7.756-4.593,8.746-13.444,0.762-17.246c-5.924-1.204-12.223-2.126-18.184-2.334
		c-5.963-0.208-12.309,0.272-18.303,1.059C203.801,109.698,204.172,118.598,211.588,123.721z"/>
	<path fill-rule="evenodd" clip-rule="evenodd" d="M229.611,126.092c6.164,0.215,12.711,1.186,17.779,2.935
		c-0.023,0.408-0.219,5.398-0.402,10.277c-11.785-1.834-23.658-3.222-35.561-4.223c0.119-3.528,0.238-7.001,0.242-7.302
		C216.846,126.388,223.447,125.877,229.611,126.092z"/>
	<path fill-rule="evenodd" clip-rule="evenodd" d="M159.078,426.354l-0.002-0.004l-0.002,0.004l-0.184-0.289
		c-5.727-8.865-6.361-17.279-6.965-25.256c-0.018-0.229-0.033-1.713-0.049-3.672c4.82-0.043,9.621-0.025,14.396,0.047
		c-0.016,1.936-0.031,3.398-0.047,3.625c-0.602,7.977-1.238,16.391-6.965,25.256L159.078,426.354z"/>
	<path fill-rule="evenodd" clip-rule="evenodd" d="M98.533,429.803l-0.002-0.004l-0.002,0.004l-0.193-0.283
		c-6.033-8.658-6.961-17.047-7.842-24.998c-0.023-0.219-0.088-1.623-0.17-3.496c4.787-0.572,9.574-1.076,14.359-1.52
		c0.065,2.365,0.113,4.258,0.102,4.518c-0.322,7.992-0.664,16.424-6.078,25.482L98.533,429.803z"/>
	<path fill-rule="evenodd" clip-rule="evenodd" d="M219.619,429.803l-0.002-0.004l-0.002,0.004l-0.174-0.297
		c-5.412-9.059-5.754-17.49-6.078-25.482c-0.01-0.25,0.035-2.016,0.096-4.258c4.832,0.455,9.617,0.967,14.354,1.529
		c-0.076,1.736-0.135,3.018-0.158,3.227c-0.879,7.951-1.809,16.34-7.84,24.998L219.619,429.803z"/>
	<path fill-rule="evenodd" clip-rule="evenodd" d="M59.504,457.357H70.43v41.711c0,3.311,1.004,5.992,3.025,8.072
		c2.021,2.064,4.789,3.098,8.316,3.098c3.957,0,7.024-1.004,9.219-3.041c2.207-2.035,3.297-4.803,3.297-8.33v-41.51h10.926v42.342
		c0,6.338-2.121,11.285-6.365,14.867c-4.244,3.586-9.908,5.379-16.99,5.379c-7.141,0-12.646-1.75-16.533-5.248
		c-3.873-3.498-5.82-8.518-5.82-15.041V457.357L59.504,457.357z M128.728,467.066v14.408h21.637v9.277h-21.637v28.146h-10.926
		v-61.541h40.549v9.709H128.728L128.728,467.066z M178.928,496.258v22.641h-10.926V457.4c7.283-0.314,11.543-0.457,12.775-0.457
		c9.723,0,16.82,1.49,21.32,4.473c4.49,2.982,6.74,7.627,6.74,13.965c0,14.109-8.316,21.164-24.949,21.164
		C182.654,496.545,181.006,496.459,178.928,496.258L178.928,496.258z M178.928,466.85v19.701c1.85,0.201,3.312,0.301,4.373,0.301
		c4.99,0,8.617-0.832,10.926-2.51c2.295-1.662,3.441-4.373,3.441-8.129c0-6.379-5.148-9.578-15.414-9.578
		C181.107,466.635,179.988,466.707,178.928,466.85L178.928,466.85z M229.414,467.066v14.408h20.33v9.277h-20.33v18.438h27.889v9.709
		h-38.816v-61.541h39.289v9.709H229.414z"/>
</g>
</svg>
