<svg width="2024" height="2024" viewBox="0 0 2024 2024" fill="none" xmlns="http://www.w3.org/2000/svg">
<path fill-rule="evenodd" clip-rule="evenodd" d="M0 0H2024V2024H0V0ZM1749.26 1922.02C1775.06 1858.57 1789.36 1788.65 1789.88 1713.81C1790.34 1642.81 1782.06 1567.33 1773.44 1488.68L1773.43 1488.58L1773.12 1485.76L1770.99 1466.25C1759.11 1356.73 1562.96 827.873 1518.68 726.838C1516.62 722.13 1514.46 717.223 1512.23 712.142C1476.65 631.206 1421.82 506.479 1426.26 450.344C1429.24 321.16 1522.83 243.719 1637.5 244.787C1702.01 245.353 1773.5 297.378 1809.64 363.289C1836.48 417.294 1840.31 486.755 1826.96 572.05C1826.93 572.302 1826.48 573.182 1826.36 573.338C1708.33 699.16 1731.77 788.854 1772.84 945.684C1797.73 1040.75 1829 1160.32 1839.4 1327.2C1851.84 1189.76 1863 1056.11 1873.18 922.97C1878.19 857.607 1883.94 807.491 1889.58 758.377L1889.6 758.173C1896.27 700.09 1902.77 643.38 1907.69 564.479V564.416C1911.49 463.287 1896.78 361.404 1850.59 290.718C1800.28 213.717 1723.57 162.037 1625.27 167.629C1396.88 180.604 1285.63 401.774 1384.62 617.384C1459.57 780.56 1555.92 1050.9 1615.69 1223.09C1675.68 1395.88 1703.46 1542.62 1649.94 1602.19C1649.06 1603.16 1647.36 1603 1646.64 1601.87C1590.33 1513.63 1508.78 1481.93 1424.38 1449.13C1324.95 1410.49 1215.9 1357.8 1144.32 1222.46C1129.17 1257.43 1102.52 1288.47 1072.95 1313.57C1032.6 1347.84 956.363 1392.83 927.293 1400.12C925.598 1400.56 924.152 1398.58 924.844 1396.92C928.113 1389.12 931.379 1381.02 933.707 1370.53C935.812 1361.04 937.129 1349.51 937.066 1334.27C916.336 1354.44 905.023 1360.92 880.664 1374.86L880.629 1374.88C873.277 1379.09 864.738 1383.98 854.391 1390.13C848.52 1393.62 842.625 1397.1 836.73 1400.57L835.984 1401.01C736.691 1459.55 638.301 1517.56 648.305 1637.59C660.34 1782.33 806.969 1820.97 968.43 1832.12C1062.14 1838.6 1155.69 1845.32 1230.57 1878.46C1231.14 1863.38 1240.32 1834.98 1253.33 1809.66C1262.88 1791.09 1276.27 1774.1 1294.15 1764.89C1295.88 1764.01 1297.82 1766.21 1296.98 1768.04C1279.25 1805.92 1271.27 1874.28 1271.96 1908.43C1272.05 1913.07 1272.28 1917.6 1272.63 1922.02H1749.26ZM487.062 1922.02H95.3262V1776.23C135.381 1763.72 172.096 1704.64 197.383 1663.96C199.754 1660.14 202.025 1656.48 204.189 1653.04C237.594 1599.98 256.449 1546.39 266.254 1483.43C277.471 1539.41 329.229 1630.83 414.391 1703.03C479.281 1757.98 563.25 1801.55 664.027 1808.87C601.426 1852.53 544.721 1889.61 487.062 1922.02ZM95.3262 1151.5C117.939 1168.47 147.166 1192.2 160.023 1203.23C161.246 1204.27 162.355 1205.23 163.361 1206.1L163.396 1206.13L164.768 1207.32C174.604 1173.2 186.703 1145.55 200.529 1122.96C214.67 1099.91 230.666 1082.15 248.012 1068.17C251.557 1045.08 256.16 1026.35 260.385 1009.16L260.406 1009.08C262.352 1001.16 264.217 993.564 265.861 986.021C270.701 963.778 297.885 914.518 318.561 889.856C311.871 886.233 300.031 884.671 288.801 883.188L288.734 883.18L288.668 883.171L288.602 883.162L288.537 883.153L288.496 883.148C284.639 882.638 280.861 882.139 277.395 881.562C234.449 874.49 141.475 841.926 95.3262 818.561V1151.5ZM283.432 1378.02C281.924 1372.37 274.004 1372.02 272.119 1377.52C265.457 1396.91 260.334 1417.14 255.338 1437.56C249.807 1459.64 244.182 1481.89 236.703 1502.75C229.256 1484.56 223.033 1466.74 217.975 1449.31C186.141 1340.01 199.119 1246.45 235.604 1171.93C272.088 1097.32 332.203 1041.71 394.486 1008.47C409.666 1000.4 424.969 993.615 440.084 988.242C445.395 986.357 444.107 976.147 438.514 975.833C411.457 974.294 388.611 976.493 367.807 982.745C351.467 987.646 336.445 994.997 321.707 1004.89C336.539 944.574 386.096 886.328 448.35 834.68C552.113 748.537 690.793 681.086 764.262 651.995C764.922 651.743 767.059 649.732 767.375 649.073C771.461 641.188 774.855 633.051 777.43 624.945C782.551 608.829 784.344 592.681 781.578 578.355C778.812 564.124 771.648 551.809 758.891 543.106C770.707 538.236 788.336 529.849 803.984 516.528C836.824 488.536 860.453 439.903 804.395 359.541C800.844 354.451 791.793 360.232 794.273 366.013C824.098 435.254 813.727 468.775 784.219 484.295C752.523 500.97 699.004 499.062 647.898 497.24L647.836 497.238C632.121 496.673 616.598 496.139 602.109 496.107L601.262 496.17C579.375 499.587 558.93 507.789 543.512 513.974L543.41 514.015C539.104 515.742 535.176 517.313 531.846 518.539C523.328 509.773 516.572 497.867 511.576 484.295C505.48 467.707 501.992 448.669 500.986 429.693C501.205 425.704 501.646 421.117 502.4 417.504C503.279 419.138 504.285 421.306 505.447 424.07C506.705 428.594 509.188 432.553 512.551 436.039C522.324 446.219 540.236 452.313 557.551 455.203C574.676 458.031 591.613 457.779 599.379 455.203C601.074 454.638 602.488 453.946 603.684 453.036C617.102 448.7 620.496 434.877 616.598 416.719C612.605 398.058 600.383 373.836 583.852 351.876C567.355 329.916 546.457 309.935 525.057 299.599C493.287 284.268 460.762 289.074 439.174 336.388C398.666 300.918 402.123 267.774 405.832 232.337C407.748 213.958 409.729 194.951 406.365 174.343C408.975 173.18 412.086 171.829 418.904 168.876C510.57 129.135 655.941 66.1133 757.695 78.5225C782.301 107.897 790.754 147.293 792.324 183.83C793.895 219.439 788.973 252.514 786.188 271.234L785.695 274.56C784.785 280.78 793.961 284.143 796.789 278.613C810.207 252.475 821.27 213.989 820.105 171.483C819.289 141.167 812.281 108.714 795.625 77.2031C829.562 72.2393 896.75 77.4551 956.52 91.8438C1001.96 102.776 1042.72 118.799 1060.29 139.282C1047.34 149.146 1039.89 155.053 1034.55 162.906C1028.42 171.86 1025.72 182.196 1021.63 202.146C1021.38 203.402 1022.11 206.513 1022.86 207.518C1027.57 213.645 1033.23 220.964 1038.86 228.221L1039.03 228.449C1092 296.865 1135.36 352.889 1168.07 443.957C1164.9 442.009 1161.88 440.406 1158.99 439.087C1151.23 435.568 1144.19 434.154 1137.88 434.531C1133.41 434.752 1130.77 440.375 1133.25 444.365C1177.44 515.743 1209.52 583.067 1228.97 655.796C1246.29 720.671 1253.58 789.943 1250.41 870.369C1249.21 867.887 1247.95 865.499 1246.67 863.175C1239.85 850.985 1231.9 841.246 1224.2 833.801C1220.52 830.25 1214.36 833.109 1214.3 838.419C1213.92 881.616 1198.4 1021.58 1144.63 1142.37C1115 1208.94 1073.73 1269.54 1017.01 1304.45C1023.68 1280.23 1028.45 1256.19 1030.3 1232.72C1032.6 1204.23 1030.65 1176.52 1022.83 1150.38C1021.04 1144.38 1011.7 1145.51 1011.23 1151.76C1007.11 1207.46 979.02 1250.03 948.254 1280.92C918.434 1310.85 885.719 1329.98 869.691 1339.35L868.027 1340.32C759.203 1392.38 692.582 1449.18 655.375 1504.76C624.895 1550.37 614.082 1595.17 616 1636.01C617.918 1676.89 632.625 1713.74 653.082 1743.39C668.922 1766.33 688.246 1784.99 707.855 1797.93C611.508 1787.22 527.352 1744.18 458.814 1680.66C375.16 1603.12 314.668 1495.11 283.432 1378.02ZM610.031 175.29C639.957 144.254 664.344 140.93 677.645 139.82C687.664 138.984 695.512 141.685 700.293 143.33C701.414 143.716 702.367 144.043 703.141 144.254C702.031 152.013 697.82 168.64 689.84 173.073C679.863 178.615 661.02 178.615 647.719 178.615C637.078 178.615 617.422 176.398 610.031 175.29ZM424.57 403.415C444.109 396.528 464.83 389.225 486.549 386.064C486.564 386.064 486.643 386.033 486.723 386.002C486.801 385.97 486.879 385.938 486.895 385.938C495.537 380.818 516.779 375.697 533.09 371.771C544.465 369.037 553.516 366.838 554.709 365.361C555.023 364.953 554.961 364.23 554.584 363.885C527.186 338.944 489.895 352.067 448.389 366.673L448.367 366.681L448.32 366.697C400.127 383.658 346.189 402.641 296.365 365.361C295.611 364.796 294.543 365.801 294.951 366.681C328.766 437.273 372.477 421.848 424.328 403.501L424.57 403.415Z" fill="#FF008A"/>
</svg>
